<svg xmlns="http://www.w3.org/2000/svg" width="1155" height="1155" xml:space="preserve">
  <path fill="#FFF" d="M0 0h1155v1155H0z"/>
  <path d="M385 88v17h-35V87a18 18 0 0 1 35 1zM420 105h35V70c-19 0-35 16-35 35zM455 70h35v35h-35zM490 70v35h35c0-19-16-35-35-35zM613 70h17v35h-17a18 18 0 0 1 0-35zM630 70h35v35h-35zM665 70v35h35c0-19-16-35-35-35zM350 105h35v35h-35zM385 105h35v35h-35zM420 105h35v35h-35zM455 105h35v35h-35zM490 105h35v35h-35zM630 105h35v35h-35zM665 105h35v35h-35zM700 105h35v35h-35zM753 140h-18v-35h18a18 18 0 0 1 0 35zM385 175v-35h-35c0 19 16 35 35 35zM385 140h35v35h-35zM490 158v-18h35v18a18 18 0 0 1-35 0zM613 140h17v35h-17a18 18 0 0 1 0-35zM630 140h35v35h-35zM700 158v-18h35v18a18 18 0 0 1-35 0zM805 158v17h-35v-18a18 18 0 0 1 35 1zM420 210v-35h-35c0 19 16 35 35 35zM420 175h35v35h-35zM473 210h-18v-35h18a18 18 0 0 1 0 35zM630 175h35v35h-35zM665 175v35h35c0-19-16-35-35-35zM735 210h35v-35c-19 0-35 16-35 35zM770 175h35v35h-35zM368 210a17 17 0 1 1 0 35 17 17 0 0 1 0-35zM525 228v17h-35v-18a18 18 0 0 1 35 1zM578 210h17v35h-17a18 18 0 0 1 0-35zM595 210h35v35h-35zM630 210h35v35h-35zM665 210h35v35h-35zM700 210h35v35h-35zM735 210h35v35h-35zM805 210h-35v35c19 0 35-16 35-35zM490 245h35v35h-35zM630 280v-35h-35c0 19 16 35 35 35zM630 245h35v35h-35zM700 245h-35v35c19 0 35-16 35-35zM368 280a17 17 0 1 1 0 35 17 17 0 0 1 0-35zM438 280a17 17 0 1 1 0 35 17 17 0 0 1 0-35zM490 298v-18h35v18a18 18 0 0 1-35 0zM578 280a17 17 0 1 1 0 35 17 17 0 0 1 0-35zM630 280h35v35h-35zM718 280a17 17 0 1 1 0 35 17 17 0 0 1 0-35zM805 298v17h-35v-18a18 18 0 0 1 35 1zM560 333v17h-35v-18a18 18 0 0 1 35 1zM613 315h17v35h-17a18 18 0 0 1 0-35zM665 315h-35v35c19 0 35-16 35-35zM770 315h35v35h-35zM88 350a17 17 0 1 1 0 35 17 17 0 0 1 0-35zM175 385h35v-35c-19 0-35 16-35 35zM210 350h35v35h-35zM245 350h35v35h-35zM280 350h35v35h-35zM315 350h35v35h-35zM350 350h35v35h-35zM385 350v35h35c0-19-16-35-35-35zM490 385h35v-35c-19 0-35 16-35 35zM525 350h35v35h-35zM683 350a17 17 0 1 1 0 35 17 17 0 0 1 0-35zM735 385h35v-35c-19 0-35 16-35 35zM770 350h35v35h-35zM823 385h-18v-35h18a18 18 0 0 1 0 35zM945 368v17h-35v-18a18 18 0 0 1 35 1zM980 385h35v-35c-19 0-35 16-35 35zM1015 350h35v35h-35zM1068 385h-18v-35h18a18 18 0 0 1 0 35zM158 385h17v35h-17a18 18 0 0 1 0-35zM210 385h-35v35c19 0 35-16 35-35zM245 403v-18h35v18a18 18 0 0 1-35 0zM315 403v-18h35v18a18 18 0 0 1-35 0zM385 385h35v35h-35zM420 385v35h35c0-19-16-35-35-35zM490 385h35v35h-35zM525 385h35v35h-35zM665 403v17h-35v-18a18 18 0 0 1 35 1zM735 403v-18h35v18a18 18 0 0 1-35 0zM875 420h35v-35c-19 0-35 16-35 35zM910 385h35v35h-35zM980 385h35v35h-35zM1050 385h-35v35c19 0 35-16 35-35zM105 438v17H70v-18a18 18 0 0 1 35 1zM298 420a17 17 0 1 1 0 35 17 17 0 0 1 0-35zM350 455h35v-35c-19 0-35 16-35 35zM385 420h35v35h-35zM455 420h-35v35c19 0 35-16 35-35zM490 420h35v35h-35zM525 420h35v35h-35zM613 420h17v35h-17a18 18 0 0 1 0-35zM630 420h35v35h-35zM718 420a17 17 0 1 1 0 35 17 17 0 0 1 0-35zM910 455v-35h-35c0 19 16 35 35 35zM945 420h-35v35c19 0 35-16 35-35zM980 438v-18h35v18a18 18 0 0 1-35 0zM70 455h35v35H70zM105 455v35h35c0-19-16-35-35-35zM228 455a17 17 0 1 1 0 35 17 17 0 0 1 0-35zM333 455h17v35h-17a18 18 0 0 1 0-35zM385 455h-35v35c19 0 35-16 35-35zM455 490h35v-35c-19 0-35 16-35 35zM490 455h35v35h-35zM525 455h35v35h-35zM630 455h35v35h-35zM683 490h-18v-35h18a18 18 0 0 1 0 35zM823 455h17v35h-17a18 18 0 0 1 0-35zM840 455v35h35c0-19-16-35-35-35zM963 455a17 17 0 1 1 0 35 17 17 0 0 1 0-35zM1085 473v17h-35v-18a18 18 0 0 1 35 1zM105 525v-35H70c0 19 16 35 35 35zM105 490h35v35h-35zM140 490v35h35c0-19-16-35-35-35zM263 490h17v35h-17a18 18 0 0 1 0-35zM298 525h-18v-35h18a18 18 0 0 1 0 35zM385 525h35v-35c-19 0-35 16-35 35zM420 490h35v35h-35zM455 490h35v35h-35zM525 490h35v35h-35zM613 490h17v35h-17a18 18 0 0 1 0-35zM630 490h35v35h-35zM753 490a17 17 0 1 1 0 35 17 17 0 0 1 0-35zM840 490h35v35h-35zM875 490v35h35c0-19-16-35-35-35zM1050 490h35v35h-35zM140 525h35v35h-35zM350 543v17h-35v-18a18 18 0 0 1 35 1zM385 543v-18h35v18a18 18 0 0 1-35 0zM455 543v-18h35v18a18 18 0 0 1-35 0zM525 525h35v35h-35zM578 560h-18v-35h18a18 18 0 0 1 0 35zM630 525h35v35h-35zM805 560h35v-35c-19 0-35 16-35 35zM840 525h35v35h-35zM875 525h35v35h-35zM910 525h35v35h-35zM945 525h35v35h-35zM980 525h35v35h-35zM1015 525h35v35h-35zM1050 525h35v35h-35zM70 595h35v-35c-19 0-35 16-35 35zM105 560h35v35h-35zM140 560h35v35h-35zM245 595h35v-35c-19 0-35 16-35 35zM280 560h35v35h-35zM315 560h35v35h-35zM525 578v-18h35v18a18 18 0 0 1-35 0zM630 578v-18h35v18a18 18 0 0 1-35 0zM735 595h35v-35c-19 0-35 16-35 35zM770 560h35v35h-35zM805 560h35v35h-35zM875 560h-35v35c19 0 35-16 35-35zM980 560h35v35h-35zM1050 560h35v35h-35zM105 630v-35H70c0 19 16 35 35 35zM105 595h35v35h-35zM140 595h35v35h-35zM245 613v-18h35v18a18 18 0 0 1-35 0zM315 595h35v35h-35zM368 630h-18v-35h18a18 18 0 0 1 0 35zM525 613v17h-35v-18a18 18 0 0 1 35 1zM613 595a17 17 0 1 1 0 35 17 17 0 0 1 0-35zM735 595h35v35h-35zM910 613v17h-35v-18a18 18 0 0 1 35 1zM980 613v-18h35v18a18 18 0 0 1-35 0zM1050 613v-18h35v18a18 18 0 0 1-35 0zM140 665v-35h-35c0 19 16 35 35 35zM140 630h35v35h-35zM175 630v35h35c0-19-16-35-35-35zM298 630h17v35h-17a18 18 0 0 1 0-35zM315 630h35v35h-35zM385 665h35v-35c-19 0-35 16-35 35zM420 630v35h35c0-19-16-35-35-35zM490 648v-18h35v18a18 18 0 0 1-35 0zM595 648v17h-35v-18a18 18 0 0 1 35 1zM665 648v17h-35v-18a18 18 0 0 1 35 1zM735 630h35v35h-35zM770 630h35v35h-35zM823 665h-18v-35h18a18 18 0 0 1 0 35zM875 630h35v35h-35zM963 630a17 17 0 1 1 0 35 17 17 0 0 1 0-35zM105 683v17H70v-18a18 18 0 0 1 35 1zM140 665h35v35h-35zM175 665h35v35h-35zM210 665h35v35h-35zM245 665v35h35c0-19-16-35-35-35zM315 665h35v35h-35zM385 665h35v35h-35zM455 665h-35v35c19 0 35-16 35-35zM543 665h17v35h-17a18 18 0 0 1 0-35zM595 665h-35v35c19 0 35-16 35-35zM630 683v-18h35v18a18 18 0 0 1-35 0zM718 665h17v35h-17a18 18 0 0 1 0-35zM735 665h35v35h-35zM910 700v-35h-35c0 19 16 35 35 35zM910 665v35h35c0-19-16-35-35-35zM998 665h17v35h-17a18 18 0 0 1 0-35zM1033 700h-18v-35h18a18 18 0 0 1 0 35zM70 700h35v35H70zM105 700h35v35h-35zM175 700h-35v35c19 0 35-16 35-35zM280 735v-35h-35c0 19 16 35 35 35zM280 700h35v35h-35zM350 700h-35v35c19 0 35-16 35-35zM385 700h35v35h-35zM525 718v17h-35v-18a18 18 0 0 1 35 1zM613 700a17 17 0 1 1 0 35 17 17 0 0 1 0-35zM683 700a17 17 0 1 1 0 35 17 17 0 0 1 0-35zM770 735v-35h-35c0 19 16 35 35 35zM788 735h-18v-35h18a18 18 0 0 1 0 35zM945 735v-35h-35c0 19 16 35 35 35zM945 700v35h35c0-19-16-35-35-35zM1068 700a17 17 0 1 1 0 35 17 17 0 0 1 0-35zM70 735h35v35H70zM105 735h35v35h-35zM193 735a17 17 0 1 1 0 35 17 17 0 0 1 0-35zM350 770h35v-35c-19 0-35 16-35 35zM385 735h35v35h-35zM438 770h-18v-35h18a18 18 0 0 1 0 35zM490 753v-18h35v18a18 18 0 0 1-35 0zM595 753v17h-35v-18a18 18 0 0 1 35 1zM875 753v17h-35v-18a18 18 0 0 1 35 1zM945 735h35v35h-35zM980 735v35h35c0-19-16-35-35-35zM105 805v-35H70c0 19 16 35 35 35zM140 770h-35v35c19 0 35-16 35-35zM263 770h17v35h-17a18 18 0 0 1 0-35zM280 770h35v35h-35zM315 770h35v35h-35zM350 770h35v35h-35zM490 788v17h-35v-18a18 18 0 0 1 35 1zM543 770h17v35h-17a18 18 0 0 1 0-35zM560 770h35v35h-35zM595 770h35v35h-35zM630 770h35v35h-35zM683 805h-18v-35h18a18 18 0 0 1 0 35zM735 805h35v-35c-19 0-35 16-35 35zM770 770h35v35h-35zM805 770h35v35h-35zM840 770h35v35h-35zM875 770h35v35h-35zM910 770h35v35h-35zM945 770h35v35h-35zM980 770h35v35h-35zM1033 805h-18v-35h18a18 18 0 0 1 0 35zM350 805h35v35h-35zM385 805v35h35c0-19-16-35-35-35zM455 805h35v35h-35zM560 805h35v35h-35zM718 805h17v35h-17a18 18 0 0 1 0-35zM735 805h35v35h-35zM770 805h35v35h-35zM910 805h35v35h-35zM945 805h35v35h-35zM350 840h35v35h-35zM385 840h35v35h-35zM420 840h35v35h-35zM490 840h-35v35c19 0 35-16 35-35zM560 840h35v35h-35zM700 858v17h-35v-18a18 18 0 0 1 35 1zM735 840h35v35h-35zM770 840h35v35h-35zM858 840a17 17 0 1 1 0 35 17 17 0 0 1 0-35zM910 840h35v35h-35zM980 840h-35v35c19 0 35-16 35-35zM350 875h35v35h-35zM385 875h35v35h-35zM508 875a17 17 0 1 1 0 35 17 17 0 0 1 0-35zM560 875h35v35h-35zM613 910h-18v-35h18a18 18 0 0 1 0 35zM665 875h35v35h-35zM735 875h35v35h-35zM770 875h35v35h-35zM910 875h35v35h-35zM1068 875a17 17 0 1 1 0 35 17 17 0 0 1 0-35zM350 910h35v35h-35zM420 910h-35v35c19 0 35-16 35-35zM473 910a17 17 0 1 1 0 35 17 17 0 0 1 0-35zM543 910h17v35h-17a18 18 0 0 1 0-35zM595 910h-35v35c19 0 35-16 35-35zM665 910h35v35h-35zM700 910h35v35h-35zM735 910h35v35h-35zM770 910h35v35h-35zM805 910h35v35h-35zM840 910h35v35h-35zM875 910h35v35h-35zM910 910h35v35h-35zM963 945h-18v-35h18a18 18 0 0 1 0 35zM350 963v-18h35v18a18 18 0 0 1-35 0zM438 945a17 17 0 1 1 0 35 17 17 0 0 1 0-35zM508 945a17 17 0 1 1 0 35 17 17 0 0 1 0-35zM665 945h35v35h-35zM735 945h-35v35c19 0 35-16 35-35zM805 980v-35h-35c0 19 16 35 35 35zM805 945h35v35h-35zM875 945h35v35h-35zM1050 963v17h-35v-18a18 18 0 0 1 35 1zM473 980a17 17 0 1 1 0 35 17 17 0 0 1 0-35zM560 998v17h-35v-18a18 18 0 0 1 35 1zM613 980a17 17 0 1 1 0 35 17 17 0 0 1 0-35zM665 980h35v35h-35zM805 980h35v35h-35zM910 1015v-35h-35c0 19 16 35 35 35zM910 980v35h35c0-19-16-35-35-35zM980 1015h35v-35c-19 0-35 16-35 35zM1015 980h35v35h-35zM1050 980v35h35c0-19-16-35-35-35zM525 1015h35v35h-35zM578 1050h-18v-35h18a18 18 0 0 1 0 35zM648 1015h17v35h-17a18 18 0 0 1 0-35zM665 1015h35v35h-35zM718 1050h-18v-35h18a18 18 0 0 1 0 35zM805 1015h35v35h-35zM858 1050h-18v-35h18a18 18 0 0 1 0 35zM910 1015h35v35h-35zM945 1015h35v35h-35zM1015 1015h-35v35c19 0 35-16 35-35zM1050 1033v-18h35v18a18 18 0 0 1-35 0zM368 1050a17 17 0 1 1 0 35 17 17 0 0 1 0-35zM438 1050h17v35h-17a18 18 0 0 1 0-35zM473 1085h-18v-35h18a18 18 0 0 1 0 35zM525 1068v-18h35v18a18 18 0 0 1-35 0zM613 1050a17 17 0 1 1 0 35 17 17 0 0 1 0-35zM665 1068v-18h35v18a18 18 0 0 1-35 0zM753 1050h17v35h-17a18 18 0 0 1 0-35zM770 1050h35v35h-35zM840 1050h-35v35c19 0 35-16 35-35zM945 1085v-35h-35c0 19 16 35 35 35zM980 1050h-35v35c19 0 35-16 35-35z"/>
  <path d="M231 107h-77a47 47 0 0 0-42 24c-3 6-5 14-5 22v79c0 26 21 46 47 46h77c26 0 47-20 47-46v-79c0-26-21-46-47-46z" fill="none"/>
  <path d="M231 70h-77a84 84 0 0 0-84 83v79c0 46 38 83 84 83h77c46 0 84-37 84-83v-79c0-46-38-83-84-83zm47 162c0 26-21 46-47 46h-77c-26 0-47-20-47-46v-79a45 45 0 0 1 20-38c7-5 17-8 27-8h77c26 0 47 20 47 46v79z"/>
  <path d="M1001 107h-77a47 47 0 0 0-42 24c-3 6-5 14-5 22v79c0 26 21 46 47 46h77c26 0 47-20 47-46v-79c0-26-21-46-47-46z" fill="none"/>
  <path d="M1001 70h-77a84 84 0 0 0-84 83v79c0 46 38 83 84 83h77c46 0 84-37 84-83v-79c0-46-38-83-84-83zm47 162c0 26-21 46-47 46h-77c-26 0-47-20-47-46v-79a45 45 0 0 1 20-38c7-5 17-8 27-8h77c26 0 47 20 47 46v79z"/>
  <path d="M231 877h-77a47 47 0 0 0-42 24c-3 6-5 14-5 22v79c0 26 21 46 47 46h77c26 0 47-20 47-46v-79c0-26-21-46-47-46z" fill="none"/>
  <path d="M231 840h-77a84 84 0 0 0-84 83v79c0 46 38 83 84 83h77c46 0 84-37 84-83v-79c0-46-38-83-84-83zm47 162c0 26-21 46-47 46h-77c-26 0-47-20-47-46v-79a45 45 0 0 1 20-38c7-5 17-8 27-8h77c26 0 47 20 47 46v79zM169 245c-16 0-29-13-29-28v-49a28 28 0 0 1 12-23c5-3 11-5 17-5h47c16 0 29 13 29 28v49c0 15-13 28-29 28h-47zM939 245c-16 0-29-13-29-28v-49a28 28 0 0 1 12-23c5-3 11-5 17-5h47c16 0 29 13 29 28v49c0 15-13 28-29 28h-47z"/>
  <path d="M169 1015c-16 0-29-13-29-28v-49a28 28 0 0 1 12-23c5-3 11-5 17-5h47c16 0 29 13 29 28v49c0 15-13 28-29 28h-47z"/>
</svg>
